<svg width="96" height="35" viewBox="0 0 96 35" fill="none" xmlns="http://www.w3.org/2000/svg">
<path d="M10.5895 34.9858C7.72911 34.8695 5.38887 34.0688 3.559 32.5817C3.20977 32.2976 2.37761 31.4459 2.09843 31.0866C1.35639 30.1321 0.851901 29.2032 0.515411 28.1725C-0.520016 24.9999 0.0128815 20.8366 2.03965 16.2676C3.775 12.3559 6.45271 8.47625 11.1244 3.103C11.8125 2.31233 13.8618 0 13.8751 0C13.88 0 13.7683 0.197913 13.6277 0.43892C12.413 2.52027 11.3737 4.9719 10.8075 7.09436C9.89793 10.5 10.0076 13.4226 11.1288 15.6888C11.9022 17.2501 13.228 18.6025 14.719 19.35C17.3291 20.6583 21.1505 20.7665 25.8172 19.6667C26.1386 19.5905 42.0598 15.267 61.1981 10.0586C80.3363 4.84965 95.9975 0.591237 96 0.594743C96.0054 0.599261 51.5364 20.065 28.4519 30.1637C24.796 31.7625 23.8184 32.1664 22.0997 32.7837C17.7062 34.362 13.7707 35.115 10.5895 34.9858Z" fill="white"/>
</svg>
