<svg width="97" height="16" viewBox="0 0 97 16" fill="none" xmlns="http://www.w3.org/2000/svg">
<path fill-rule="evenodd" clip-rule="evenodd" d="M63.2325 1.3938C63.4193 1.3938 63.7483 1.43957 63.7483 1.1415C63.7483 0.906502 63.5593 0.87636 63.3587 0.87636H62.9518V1.3938H63.2325ZM63.9184 2.20764H63.6999L63.2797 1.53335H62.9507V2.20764H62.764V0.750768H63.4031C63.5432 0.750768 63.6516 0.768072 63.7622 0.828915C63.8556 0.876919 63.9173 1.00307 63.9173 1.14262C63.9173 1.44069 63.7144 1.53391 63.4809 1.53391L63.9184 2.20764ZM64.3864 1.47251C64.385 1.17372 64.2663 0.88755 64.0559 0.676276C63.8455 0.465001 63.5606 0.345724 63.2631 0.344402C62.6389 0.344402 62.1114 0.846218 62.1114 1.47251C62.1114 2.11387 62.6389 2.62964 63.2631 2.62964C63.8717 2.62908 64.3864 2.11387 64.3864 1.47251ZM61.9703 1.47251C61.9701 1.30259 62.0035 1.13433 62.0686 0.977482C62.1337 0.820637 62.2291 0.678326 62.3494 0.5588C62.4696 0.439275 62.6123 0.344915 62.7692 0.281187C62.926 0.217458 63.0939 0.185631 63.2631 0.187551C63.9817 0.187551 64.5581 0.768072 64.5581 1.47251C64.5581 2.19258 63.9817 2.78593 63.2631 2.78593C62.5311 2.78593 61.9703 2.19258 61.9703 1.47251ZM95.69 1.3938C95.8789 1.3938 96.2058 1.43957 96.2058 1.1415C96.2058 0.906502 96.0018 0.87636 95.8311 0.87636H95.411V1.3938H95.69ZM96.3619 2.20764H96.158L95.7228 1.53335H95.411V2.20764H95.2392V0.750768H95.8634C95.9873 0.750768 96.0968 0.768072 96.2208 0.828915C96.3314 0.876919 96.3769 1.00307 96.3769 1.14262C96.3769 1.44069 96.1752 1.53391 95.9245 1.53391L96.3619 2.20764ZM96.8438 1.47251C96.8438 0.846218 96.3464 0.344402 95.7072 0.344402C95.5595 0.343886 95.4132 0.372712 95.2767 0.429222C95.1402 0.485732 95.0162 0.568808 94.9118 0.673665C94.8074 0.778522 94.7246 0.90309 94.6684 1.04019C94.6121 1.17729 94.5834 1.32422 94.5839 1.47251C94.5839 2.11387 95.0841 2.62964 95.7072 2.62964C96.3464 2.62908 96.8438 2.11387 96.8438 1.47251ZM94.4272 1.47251C94.4272 0.768072 94.973 0.187551 95.7072 0.187551C96.4236 0.187551 97 0.768072 97 1.47251C97 2.19258 96.4236 2.78593 95.7072 2.78593C94.973 2.78593 94.4272 2.19258 94.4272 1.47251ZM18.6151 13.4178C18.1661 13.4194 17.7213 13.3318 17.3062 13.16C16.8912 12.9882 16.514 12.7356 16.1966 12.4167C15.8792 12.0979 15.6277 11.7191 15.4567 11.3022C15.2857 10.8853 15.1985 10.4386 15.2002 9.98772C15.2001 9.53744 15.2883 9.09154 15.4599 8.67554C15.6315 8.25954 15.8831 7.8816 16.2002 7.56333C16.5174 7.24507 16.8939 6.99272 17.3083 6.82073C17.7227 6.64873 18.1667 6.56047 18.6151 6.56098C19.0632 6.56076 19.507 6.64924 19.9211 6.82138C20.3352 6.99351 20.7114 7.24591 21.0283 7.56416C21.3452 7.88241 21.5965 8.26025 21.7679 8.6761C21.9393 9.09195 22.0274 9.53765 22.0272 9.98772C22.029 10.4384 21.942 10.885 21.7713 11.3018C21.6005 11.7185 21.3493 12.0972 21.0321 12.4161C20.7149 12.7349 20.3381 12.9876 19.9233 13.1595C19.5084 13.3314 19.0638 13.4192 18.6151 13.4178ZM5.79874 13.4178C3.91288 13.4178 2.40109 11.9001 2.40109 9.98772C2.40109 8.09377 3.91288 6.56098 5.79874 6.56098C7.68459 6.56098 9.21361 8.09377 9.21361 9.98772C9.21516 10.4386 9.12788 10.8852 8.95682 11.3021C8.78576 11.7189 8.53429 12.0976 8.21689 12.4164C7.89949 12.7352 7.52243 12.9878 7.10742 13.1597C6.69241 13.3316 6.24764 13.4193 5.79874 13.4178ZM48.7643 13.4178C46.8784 13.4178 45.3672 11.9001 45.3672 9.98772C45.3672 8.09377 46.8784 6.56098 48.7643 6.56098C50.6346 6.56098 52.1642 8.09377 52.1642 9.98772C52.1661 10.4374 52.0795 10.883 51.9095 11.299C51.7395 11.715 51.4894 12.0932 51.1735 12.4119C50.8577 12.7306 50.4822 12.9835 50.0688 13.1561C49.6554 13.3287 49.212 13.4177 48.7643 13.4178ZM35.8095 13.4178C35.3603 13.4205 34.9149 13.3337 34.4994 13.1623C34.0838 12.9909 33.7062 12.7383 33.3886 12.4192C33.0709 12.1002 32.8195 11.7209 32.6489 11.3036C32.4783 10.8862 32.3919 10.4389 32.3947 9.98772C32.3934 9.53713 32.4809 9.09073 32.6521 8.67424C32.8233 8.25774 33.0749 7.87935 33.3922 7.56086C33.7096 7.24238 34.0866 6.99007 34.5015 6.81847C34.9163 6.64687 35.3609 6.55936 35.8095 6.56098C36.2578 6.56069 36.7018 6.6491 37.1161 6.82117C37.5303 6.99324 37.9068 7.2456 38.2239 7.56382C38.541 7.88205 38.7926 8.2599 38.9643 8.6758C39.1359 9.0917 39.2243 9.5375 39.2244 9.98772C39.2259 10.4385 39.1386 10.8852 38.9675 11.302C38.7964 11.7188 38.5449 12.0974 38.2275 12.4162C37.9101 12.735 37.5331 12.9877 37.1181 13.1595C36.7032 13.3314 36.2584 13.4192 35.8095 13.4178ZM22.045 14.7028C21.0525 15.4394 19.8497 15.8345 18.6156 15.8292C15.4025 15.8292 12.7997 13.2146 12.7997 9.98772C12.7997 6.77812 15.4025 4.16467 18.6156 4.16467C19.8929 4.16467 21.0773 4.58666 22.0277 5.29109V0.485624H24.5544V15.736H22.045V14.7028ZM62.6094 7.89171C62.4683 6.93497 61.704 6.24784 60.4896 6.24784C59.8504 6.24784 58.4631 6.46553 58.4631 7.29556C58.4631 8.53307 60.568 8.64192 61.0815 8.6743C64.4503 8.98744 65.4313 10.475 65.4313 12.2277C65.4313 13.5272 64.7765 14.4973 63.8422 15.1867C63.0474 15.7656 61.4106 16 60.4118 16C58.1974 16 55.9536 14.7809 55.6568 12.0229H58.1363C58.2742 13.3235 59.632 13.8085 60.3962 13.8085C61.7824 13.8085 62.7651 13.2146 62.7651 12.5253C62.7651 11.4295 61.7524 11.194 60.2856 11.0382C59.4619 10.9445 57.8845 10.662 57.2309 10.1139C56.4995 9.53502 55.8753 8.87636 55.8753 7.74993C55.8753 5.72983 57.4493 4.13341 60.553 4.1161C63.1247 4.10103 65.0733 5.63661 65.1339 7.87385L62.6094 7.89171ZM9.22862 14.7028C8.23625 15.44 7.03309 15.8351 5.79874 15.8292C2.57228 15.8292 0 13.2146 0 9.98772C0 6.77812 2.57228 4.16467 5.79874 4.16467C7.0782 4.16467 8.26263 4.58666 9.22862 5.29109V4.18029H11.7225V15.736H9.22862V14.7028ZM28.887 3.38152V0.469995H26.3775V3.38152H28.887ZM28.887 15.7354V4.17974H26.3775V15.7354H28.887ZM52.1642 14.7028C51.2282 15.4223 50.0443 15.8292 48.7643 15.8292C45.5534 15.8292 42.9505 13.2146 42.9505 9.98772C42.9505 6.77812 45.5534 4.16467 48.7643 4.16467C50.0443 4.16467 51.2287 4.58666 52.1642 5.29109V4.18029H54.6881V15.736H52.1947L52.1642 14.7028ZM39.2394 14.7028C38.289 15.4223 37.0896 15.8292 35.8095 15.8292C32.6136 15.8292 29.9958 13.2146 29.9958 9.98772C29.9958 6.77812 32.6136 4.16467 35.8095 4.16467C37.0896 4.16467 38.274 4.58666 39.2394 5.29109V0.485624H41.7339V15.736H39.2394V14.7028ZM84.8256 8.6743C84.9657 5.93413 84.1536 2.92716 81.9704 0C79.8517 2.74016 79.1047 5.85599 79.2903 8.6743H84.8256ZM79.6171 10.849C79.5238 10.4404 79.4459 10.0283 79.3837 9.61373H84.7311C84.67 10.0285 84.5921 10.4406 84.4977 10.849H79.6171ZM80.8644 13.9509C81.2077 14.5247 81.6043 15.0646 82.0488 15.5635C82.4862 15.0773 82.8758 14.5286 83.2354 13.9509H80.8644ZM93.166 8.68937C93.7891 7.38934 94.2265 5.93413 94.4277 4.30533C90.7966 4.61903 87.9437 6.38683 86.0245 8.68937H93.166ZM92.6825 9.61373C92.4329 10.0508 92.1667 10.4421 91.8877 10.849L84.6055 10.8183C84.8389 10.427 85.0735 9.98772 85.3392 9.61373H92.6825ZM89.8134 13.0109C90.2697 12.6368 90.6968 12.2283 91.0912 11.789L73.0069 11.7739C73.4142 12.2265 73.8571 12.6454 74.3314 13.0265L89.8134 13.0109ZM83.5 13.9509C83.3928 14.4711 83.3303 14.9996 83.3133 15.5306C85.0435 15.453 86.836 14.9199 88.4578 13.9509H83.5ZM71.4179 9.61373C71.6819 10.0508 71.9476 10.4421 72.2449 10.849H79.4943C79.2903 10.427 79.0419 10.0207 78.7745 9.61373H71.4179ZM75.657 13.9509C77.2789 14.9199 79.0569 15.453 80.7866 15.5306C80.767 15.0006 80.71 14.4727 80.6159 13.9509H75.657ZM78.0731 8.68937C76.1722 6.38683 73.336 4.61903 69.7021 4.30533C69.8867 5.82145 70.3023 7.30006 70.9343 8.68937H78.0731Z" fill="white"/>
</svg>
