<svg width="97" height="30" viewBox="0 0 97 30" fill="none" xmlns="http://www.w3.org/2000/svg">
<path d="M41.0099 0.954064H45.4721V4.98233H41.0099V0.954064ZM41.4348 9.64664H45.1533V29.364H41.4348V9.64664ZM13.2804 9.64664H16.9989V29.364H13.3866V26.5018H13.2804C11.793 28.9399 9.24315 30 6.48083 30C2.33735 30 0 26.8198 0 22.8975V9.64664H3.71851V21.3074C3.71851 24.6996 4.46221 27.2438 8.07448 27.2438C9.56188 27.2438 11.6867 26.5018 12.4304 24.3816C13.1742 22.5795 13.1742 20.2473 13.1742 19.7173V9.64664H13.2804ZM24.4359 12.5088C25.8171 10.0707 28.4732 9.0106 30.4918 9.0106C31.8729 9.0106 37.9288 9.32862 37.9288 15.689V29.2579H34.2103V16.8551C34.2103 13.5689 32.8291 11.8728 29.6418 11.8728C29.6418 11.8728 27.6232 11.7668 26.0296 13.3569C25.4984 13.8869 24.4359 14.735 24.4359 18.6572V29.364H20.7174V9.64664H24.4359V12.5088ZM60.7711 15.9011C60.5586 13.4629 59.3899 11.7668 56.7338 11.7668C53.2278 11.7668 51.8467 14.841 51.8467 19.3993C51.8467 23.9576 53.2278 27.0318 56.7338 27.0318C59.1774 27.0318 60.6648 25.4417 60.8773 22.5795H64.5958C64.2771 27.0318 60.9836 29.682 56.6276 29.682C50.3593 29.682 47.8094 25.2297 47.8094 19.5053C47.8094 13.7809 50.678 9.0106 56.9463 9.0106C61.0898 9.0106 64.1709 11.6608 64.3833 15.9011H60.7711ZM70.1205 20.1413C69.8018 23.5336 71.2892 27.1378 75.0077 27.1378C77.8762 27.1378 79.3636 25.9717 79.7886 23.1095H83.7196C83.0822 27.5618 79.6824 29.788 75.0077 29.788C68.7393 29.788 66.1895 25.3357 66.1895 19.6113C66.1895 13.8869 69.0581 9.11661 75.3264 9.11661C81.1698 9.22261 83.9321 12.9329 83.9321 18.3392V20.1413H70.1205ZM80.1073 17.5972C80.2136 14.311 78.7262 11.7668 75.1139 11.7668C72.0329 11.7668 70.2267 14.417 70.2267 17.5972H80.1073ZM88.1818 29.1519V12.1908H84.782V9.64664H88.1818V5.40636C88.2881 1.16608 91.5816 0 94.3439 0C95.1939 0 96.1501 0.212014 97 0.424028V3.49823C96.3625 3.49823 95.7251 3.39223 95.0876 3.39223C92.9628 3.39223 91.7941 3.92226 91.9003 6.0424V9.64664H96.4688V12.1908H91.9003V29.1519H88.1818Z" fill="white"/>
</svg>
