<svg width="97" height="49" viewBox="0 0 97 49" fill="none" xmlns="http://www.w3.org/2000/svg">
<path d="M52.2794 0.164992C51.9619 0.211876 51.6567 1.38073 51.0433 1.98989C50.5952 2.42865 50.0345 2.40214 49.7377 2.94534C49.6246 3.14742 49.6611 3.49436 49.5337 3.8261C49.2825 4.49184 48.4017 4.55101 48.4017 5.2756C48.3985 6.05871 49.1357 6.20745 49.7756 6.7639C50.2748 7.2101 50.3226 7.51824 50.9266 7.73552C51.4433 7.91012 52.2109 7.33782 52.9022 7.54378C53.4687 7.71192 54.0116 7.83349 54.1402 8.41646C54.2534 8.95449 54.1322 9.78642 53.4441 9.69039C53.2123 9.66388 52.2057 9.326 50.9719 9.45759C49.4807 9.62702 47.7799 10.113 47.6134 11.7759C47.5216 12.7039 48.6711 13.799 49.7807 13.5762C50.547 13.4262 50.1849 12.5209 50.6013 12.0821C51.1494 11.5185 54.2534 14.047 57.1372 14.047C58.3516 14.047 59.255 13.7398 60.1523 12.8005C60.2364 12.7281 60.3382 12.5749 60.4679 12.5645C60.5904 12.5749 60.8035 12.6955 60.874 12.7465C63.1962 14.6135 64.9528 18.3596 73.4914 18.4023C74.6929 18.4094 76.0596 18.9833 77.1774 20.0018C78.1736 20.9227 78.7553 22.3567 79.3221 23.8104C80.1773 25.9916 81.7073 28.1139 84.0298 30.4746C84.1559 30.6013 86.0681 32.0874 86.221 32.198C86.2446 32.2151 86.3856 32.5497 86.3365 32.7366C86.2802 34.1535 86.0743 38.2702 89.1437 38.457C89.8938 38.4945 89.6978 37.9669 89.6978 37.6047C89.6959 36.8869 89.5653 36.1746 89.9426 35.4397C90.4593 34.4302 88.8465 33.9656 88.8934 31.7821C88.927 30.1542 87.5593 30.4319 86.8661 29.1916C86.4661 28.4732 86.1108 28.0923 86.1363 27.2134C86.2925 22.2681 85.0839 19.0179 84.4818 18.2196C84.0114 17.6176 83.6224 17.3786 84.0518 17.0999C86.6142 15.4066 87.1949 13.8336 87.1949 13.8336C88.5578 10.6316 89.7826 7.70707 91.472 6.41891C91.8115 6.15248 92.6845 5.50129 93.2193 5.24618C94.7965 4.50283 95.6252 4.05178 96.0837 3.60688C96.8073 2.90136 97.3809 1.42858 96.6857 0.536179C95.8224 -0.565094 94.3286 0.308552 93.6706 0.699786C88.961 3.49436 88.2668 8.42454 86.6356 11.2563C85.3341 13.518 83.2179 15.1799 81.3258 15.3157C79.9089 15.4208 78.3789 15.134 76.857 14.4654C73.1548 12.8422 71.1295 10.747 70.6496 10.3762C69.6554 9.60859 61.9345 2.02772 55.6774 1.71829C55.6774 1.71829 54.9007 0.162729 54.7057 0.138156C54.2485 0.0789857 53.78 1.06612 53.4441 1.18155C53.1285 1.28567 52.5979 0.112936 52.2794 0.164992ZM24.7366 45.4071C24.1478 45.3929 23.6476 44.9101 23.6476 44.3129L23.6496 24.7965H17.2169V46.3085C17.2169 47.3639 18.0711 48.2233 19.1197 48.2233H30.361C31.4164 48.2233 32.2606 47.3639 32.2606 46.3085V24.7962H25.834L25.8288 44.3129C25.8288 44.9101 25.3286 45.3929 24.7366 45.4071ZM46.2713 24.7965H36.5376C35.384 24.7965 34.446 25.7332 34.446 26.8969V48.2233H40.8849V28.661C40.8857 28.519 40.9146 28.3786 40.9698 28.2478C41.0249 28.117 41.1053 27.9983 41.2064 27.8986C41.3074 27.7988 41.4271 27.72 41.5586 27.6665C41.6901 27.613 41.8309 27.586 41.9729 27.5869C42.5733 27.5869 43.056 28.0506 43.069 28.6445V48.2233H49.4807V28.6445C49.4888 28.0506 49.9705 27.5872 50.5706 27.5872C51.1646 27.5872 51.657 28.0615 51.6609 28.6607V48.2233H58.0998V26.8969C58.0998 25.7332 57.1585 24.7962 56.0072 24.7962H46.2716M12.9269 42.3367H6.42819V48.2233H0V24.7965H12.9676C14.1284 24.7965 15.0347 25.7397 15.0347 26.9066V40.225C15.0354 40.5023 14.9815 40.7769 14.8758 41.0333C14.7702 41.2896 14.615 41.5226 14.4192 41.7188C14.2233 41.915 13.9906 42.0706 13.7345 42.1767C13.4784 42.2828 13.2038 42.3373 12.9265 42.337L12.9269 42.3367ZM8.61004 28.7017C8.61197 28.557 8.58529 28.4132 8.53154 28.2787C8.47779 28.1443 8.39803 28.0218 8.29683 27.9182C8.19563 27.8146 8.07499 27.732 7.94181 27.6752C7.80863 27.6183 7.66553 27.5883 7.52073 27.5869H6.42851V39.4358H7.52073C8.08851 39.4358 8.61522 38.9847 8.61004 38.3355V28.7017Z" fill="white"/>
<path d="M68.892 48.2233V42.3418H66.7066V48.2233H60.281V26.8968C60.281 25.7332 61.219 24.7961 62.3726 24.7961H73.227C74.3825 24.7961 75.3196 25.7332 75.3196 26.8968V48.2233H68.892ZM68.892 39.4399V28.6525C68.8768 28.0566 68.397 27.5985 67.7969 27.5985C67.2026 27.5985 66.7128 28.0747 66.7066 28.67V39.4399H68.892Z" fill="white"/>
</svg>
